<mxfile host="app.diagrams.net" modified="2024-02-12T13:55:23.804Z" agent="Mozilla/5.0 (Windows NT 10.0; Win64; x64) AppleWebKit/537.36 (KHTML, like Gecko) Chrome/120.0.0.0 Safari/537.36 OPR/106.0.0.0" etag="kkcr9UAMmUJ3M0o_rbuk" version="23.1.1" type="github">
  <diagram name="Page-1" id="2YBvvXClWsGukQMizWep">
    <mxGraphModel dx="2522" dy="775" grid="1" gridSize="10" guides="1" tooltips="1" connect="1" arrows="1" fold="1" page="1" pageScale="1" pageWidth="850" pageHeight="1100" math="0" shadow="0">
      <root>
        <mxCell id="0" />
        <mxCell id="1" parent="0" />
        <mxCell id="QtL66gHbMc1nn8fpmdVY-1" value="s&#39;inscrire" style="shape=umlFrame;whiteSpace=wrap;html=1;pointerEvents=0;" parent="1" vertex="1">
          <mxGeometry x="200" y="100" width="470" height="520" as="geometry" />
        </mxCell>
        <mxCell id="QtL66gHbMc1nn8fpmdVY-4" value="" style="shape=umlLifeline;perimeter=lifelinePerimeter;whiteSpace=wrap;html=1;container=1;dropTarget=0;collapsible=0;recursiveResize=0;outlineConnect=0;portConstraint=eastwest;newEdgeStyle={&quot;curved&quot;:0,&quot;rounded&quot;:0};participant=umlActor;size=40;" parent="1" vertex="1">
          <mxGeometry x="270" y="150" width="20" height="450" as="geometry" />
        </mxCell>
        <mxCell id="QtL66gHbMc1nn8fpmdVY-5" value="internaute" style="text;html=1;align=center;verticalAlign=middle;resizable=0;points=[];autosize=1;strokeColor=none;fillColor=none;" parent="1" vertex="1">
          <mxGeometry x="240" y="188" width="80" height="30" as="geometry" />
        </mxCell>
        <mxCell id="QtL66gHbMc1nn8fpmdVY-7" value="system" style="shape=umlLifeline;perimeter=lifelinePerimeter;whiteSpace=wrap;html=1;container=1;dropTarget=0;collapsible=0;recursiveResize=0;outlineConnect=0;portConstraint=eastwest;newEdgeStyle={&quot;curved&quot;:0,&quot;rounded&quot;:0};" parent="1" vertex="1">
          <mxGeometry x="500" y="160" width="100" height="440" as="geometry" />
        </mxCell>
        <mxCell id="QtL66gHbMc1nn8fpmdVY-24" value="" style="html=1;points=[[0,0,0,0,5],[0,1,0,0,-5],[1,0,0,0,5],[1,1,0,0,-5]];perimeter=orthogonalPerimeter;outlineConnect=0;targetShapes=umlLifeline;portConstraint=eastwest;newEdgeStyle={&quot;curved&quot;:0,&quot;rounded&quot;:0};" parent="QtL66gHbMc1nn8fpmdVY-7" vertex="1">
          <mxGeometry x="45" y="200" width="10" height="200" as="geometry" />
        </mxCell>
        <mxCell id="QtL66gHbMc1nn8fpmdVY-25" value="verification" style="html=1;align=left;spacingLeft=2;endArrow=block;rounded=0;edgeStyle=orthogonalEdgeStyle;curved=0;rounded=0;" parent="QtL66gHbMc1nn8fpmdVY-7" target="QtL66gHbMc1nn8fpmdVY-24" edge="1">
          <mxGeometry relative="1" as="geometry">
            <mxPoint x="50" y="180" as="sourcePoint" />
            <Array as="points">
              <mxPoint x="85" y="210" />
            </Array>
          </mxGeometry>
        </mxCell>
        <mxCell id="QtL66gHbMc1nn8fpmdVY-10" value="" style="whiteSpace=wrap;html=1;rotation=-90;" parent="1" vertex="1">
          <mxGeometry x="525" y="260" width="50" height="15" as="geometry" />
        </mxCell>
        <mxCell id="QtL66gHbMc1nn8fpmdVY-14" value="" style="endArrow=classic;html=1;rounded=0;" parent="1" target="QtL66gHbMc1nn8fpmdVY-7" edge="1">
          <mxGeometry width="50" height="50" relative="1" as="geometry">
            <mxPoint x="279.5" y="240" as="sourcePoint" />
            <mxPoint x="540" y="240" as="targetPoint" />
          </mxGeometry>
        </mxCell>
        <mxCell id="QtL66gHbMc1nn8fpmdVY-15" value="1: Acceder à la page de&amp;nbsp; &quot;register&quot;" style="text;html=1;align=center;verticalAlign=middle;resizable=0;points=[];autosize=1;strokeColor=none;fillColor=none;" parent="1" vertex="1">
          <mxGeometry x="315" y="218" width="200" height="30" as="geometry" />
        </mxCell>
        <mxCell id="QtL66gHbMc1nn8fpmdVY-16" value="" style="endArrow=block;dashed=1;endFill=0;endSize=12;html=1;rounded=0;" parent="1" edge="1">
          <mxGeometry width="160" relative="1" as="geometry">
            <mxPoint x="540" y="290" as="sourcePoint" />
            <mxPoint x="282.13" y="290" as="targetPoint" />
          </mxGeometry>
        </mxCell>
        <mxCell id="QtL66gHbMc1nn8fpmdVY-17" value="2: formulaire d&#39;inscription" style="text;html=1;align=center;verticalAlign=middle;resizable=0;points=[];autosize=1;strokeColor=none;fillColor=none;" parent="1" vertex="1">
          <mxGeometry x="335" y="260" width="160" height="30" as="geometry" />
        </mxCell>
        <mxCell id="QtL66gHbMc1nn8fpmdVY-18" value="" style="endArrow=classic;html=1;rounded=0;" parent="1" edge="1">
          <mxGeometry width="50" height="50" relative="1" as="geometry">
            <mxPoint x="279.75" y="340" as="sourcePoint" />
            <mxPoint x="550.25" y="340" as="targetPoint" />
          </mxGeometry>
        </mxCell>
        <mxCell id="QtL66gHbMc1nn8fpmdVY-19" value="3:remplissage formulaire" style="text;html=1;align=center;verticalAlign=middle;resizable=0;points=[];autosize=1;strokeColor=none;fillColor=none;" parent="1" vertex="1">
          <mxGeometry x="340" y="320" width="150" height="30" as="geometry" />
        </mxCell>
        <mxCell id="QtL66gHbMc1nn8fpmdVY-26" value="seq alt" style="shape=umlFrame;whiteSpace=wrap;html=1;pointerEvents=0;" parent="1" vertex="1">
          <mxGeometry x="225" y="390" width="420" height="160" as="geometry" />
        </mxCell>
        <mxCell id="QtL66gHbMc1nn8fpmdVY-28" value="" style="endArrow=block;dashed=1;endFill=0;endSize=12;html=1;rounded=0;exitX=0.5;exitY=0.458;exitDx=0;exitDy=0;exitPerimeter=0;" parent="1" edge="1">
          <mxGeometry width="160" relative="1" as="geometry">
            <mxPoint x="550" y="439.91999999999996" as="sourcePoint" />
            <mxPoint x="280" y="440" as="targetPoint" />
          </mxGeometry>
        </mxCell>
        <mxCell id="QtL66gHbMc1nn8fpmdVY-29" value="5:ajouter avec succès" style="text;html=1;align=center;verticalAlign=middle;resizable=0;points=[];autosize=1;strokeColor=none;fillColor=none;" parent="1" vertex="1">
          <mxGeometry x="345" y="410" width="140" height="30" as="geometry" />
        </mxCell>
        <mxCell id="QtL66gHbMc1nn8fpmdVY-38" value="" style="endArrow=none;dashed=1;html=1;rounded=0;entryX=0.999;entryY=0.677;entryDx=0;entryDy=0;entryPerimeter=0;" parent="1" edge="1">
          <mxGeometry width="50" height="50" relative="1" as="geometry">
            <mxPoint x="227.5" y="470" as="sourcePoint" />
            <mxPoint x="642.4999999999999" y="470" as="targetPoint" />
          </mxGeometry>
        </mxCell>
        <mxCell id="QtL66gHbMc1nn8fpmdVY-39" value="" style="endArrow=block;dashed=1;endFill=0;endSize=12;html=1;rounded=0;exitX=0.5;exitY=0.458;exitDx=0;exitDy=0;exitPerimeter=0;" parent="1" edge="1">
          <mxGeometry width="160" relative="1" as="geometry">
            <mxPoint x="550" y="510" as="sourcePoint" />
            <mxPoint x="280" y="510" as="targetPoint" />
          </mxGeometry>
        </mxCell>
        <mxCell id="QtL66gHbMc1nn8fpmdVY-40" value="error" style="text;html=1;align=center;verticalAlign=middle;resizable=0;points=[];autosize=1;strokeColor=none;fillColor=none;" parent="1" vertex="1">
          <mxGeometry x="390" y="480" width="50" height="30" as="geometry" />
        </mxCell>
        <mxCell id="QtL66gHbMc1nn8fpmdVY-42" value="&lt;font style=&quot;font-size: 10px;&quot;&gt;s&#39;authentifier&lt;/font&gt;" style="shape=umlFrame;whiteSpace=wrap;html=1;pointerEvents=0;" parent="1" vertex="1">
          <mxGeometry x="190" y="810" width="490" height="520" as="geometry" />
        </mxCell>
        <mxCell id="QtL66gHbMc1nn8fpmdVY-43" value="" style="shape=umlLifeline;perimeter=lifelinePerimeter;whiteSpace=wrap;html=1;container=1;dropTarget=0;collapsible=0;recursiveResize=0;outlineConnect=0;portConstraint=eastwest;newEdgeStyle={&quot;curved&quot;:0,&quot;rounded&quot;:0};participant=umlActor;size=40;" parent="1" vertex="1">
          <mxGeometry x="280" y="860" width="20" height="450" as="geometry" />
        </mxCell>
        <mxCell id="QtL66gHbMc1nn8fpmdVY-44" value="user" style="text;html=1;align=center;verticalAlign=middle;resizable=0;points=[];autosize=1;strokeColor=none;fillColor=none;" parent="1" vertex="1">
          <mxGeometry x="265" y="898" width="50" height="30" as="geometry" />
        </mxCell>
        <mxCell id="QtL66gHbMc1nn8fpmdVY-45" value="system" style="shape=umlLifeline;perimeter=lifelinePerimeter;whiteSpace=wrap;html=1;container=1;dropTarget=0;collapsible=0;recursiveResize=0;outlineConnect=0;portConstraint=eastwest;newEdgeStyle={&quot;curved&quot;:0,&quot;rounded&quot;:0};" parent="1" vertex="1">
          <mxGeometry x="510" y="870" width="100" height="440" as="geometry" />
        </mxCell>
        <mxCell id="QtL66gHbMc1nn8fpmdVY-46" value="" style="html=1;points=[[0,0,0,0,5],[0,1,0,0,-5],[1,0,0,0,5],[1,1,0,0,-5]];perimeter=orthogonalPerimeter;outlineConnect=0;targetShapes=umlLifeline;portConstraint=eastwest;newEdgeStyle={&quot;curved&quot;:0,&quot;rounded&quot;:0};" parent="QtL66gHbMc1nn8fpmdVY-45" vertex="1">
          <mxGeometry x="45" y="200" width="10" height="200" as="geometry" />
        </mxCell>
        <mxCell id="QtL66gHbMc1nn8fpmdVY-47" value="verification" style="html=1;align=left;spacingLeft=2;endArrow=block;rounded=0;edgeStyle=orthogonalEdgeStyle;curved=0;rounded=0;" parent="QtL66gHbMc1nn8fpmdVY-45" target="QtL66gHbMc1nn8fpmdVY-46" edge="1">
          <mxGeometry relative="1" as="geometry">
            <mxPoint x="50" y="180" as="sourcePoint" />
            <Array as="points">
              <mxPoint x="85" y="210" />
            </Array>
          </mxGeometry>
        </mxCell>
        <mxCell id="QtL66gHbMc1nn8fpmdVY-48" value="" style="whiteSpace=wrap;html=1;rotation=-90;" parent="1" vertex="1">
          <mxGeometry x="535" y="970" width="50" height="15" as="geometry" />
        </mxCell>
        <mxCell id="QtL66gHbMc1nn8fpmdVY-49" value="" style="endArrow=classic;html=1;rounded=0;" parent="1" target="QtL66gHbMc1nn8fpmdVY-45" edge="1">
          <mxGeometry width="50" height="50" relative="1" as="geometry">
            <mxPoint x="289.5" y="950" as="sourcePoint" />
            <mxPoint x="550" y="950" as="targetPoint" />
          </mxGeometry>
        </mxCell>
        <mxCell id="QtL66gHbMc1nn8fpmdVY-50" value="1: Acceder à la page de&amp;nbsp; &quot;login&quot;" style="text;html=1;align=center;verticalAlign=middle;resizable=0;points=[];autosize=1;strokeColor=none;fillColor=none;" parent="1" vertex="1">
          <mxGeometry x="330" y="928" width="190" height="30" as="geometry" />
        </mxCell>
        <mxCell id="QtL66gHbMc1nn8fpmdVY-51" value="" style="endArrow=block;dashed=1;endFill=0;endSize=12;html=1;rounded=0;" parent="1" edge="1">
          <mxGeometry width="160" relative="1" as="geometry">
            <mxPoint x="550" y="1000" as="sourcePoint" />
            <mxPoint x="292.13" y="1000" as="targetPoint" />
          </mxGeometry>
        </mxCell>
        <mxCell id="QtL66gHbMc1nn8fpmdVY-52" value="2: formulaire de login" style="text;html=1;align=center;verticalAlign=middle;resizable=0;points=[];autosize=1;strokeColor=none;fillColor=none;" parent="1" vertex="1">
          <mxGeometry x="355" y="970" width="140" height="30" as="geometry" />
        </mxCell>
        <mxCell id="QtL66gHbMc1nn8fpmdVY-53" value="" style="endArrow=classic;html=1;rounded=0;" parent="1" edge="1">
          <mxGeometry width="50" height="50" relative="1" as="geometry">
            <mxPoint x="289.75" y="1050" as="sourcePoint" />
            <mxPoint x="560.25" y="1050" as="targetPoint" />
          </mxGeometry>
        </mxCell>
        <mxCell id="QtL66gHbMc1nn8fpmdVY-54" value="3:remplissage formulaire" style="text;html=1;align=center;verticalAlign=middle;resizable=0;points=[];autosize=1;strokeColor=none;fillColor=none;" parent="1" vertex="1">
          <mxGeometry x="350" y="1030" width="150" height="30" as="geometry" />
        </mxCell>
        <mxCell id="QtL66gHbMc1nn8fpmdVY-55" value="seq alt" style="shape=umlFrame;whiteSpace=wrap;html=1;pointerEvents=0;" parent="1" vertex="1">
          <mxGeometry x="235" y="1100" width="420" height="160" as="geometry" />
        </mxCell>
        <mxCell id="QtL66gHbMc1nn8fpmdVY-56" value="" style="endArrow=block;dashed=1;endFill=0;endSize=12;html=1;rounded=0;exitX=0.5;exitY=0.458;exitDx=0;exitDy=0;exitPerimeter=0;" parent="1" edge="1">
          <mxGeometry width="160" relative="1" as="geometry">
            <mxPoint x="560" y="1149.92" as="sourcePoint" />
            <mxPoint x="290" y="1150" as="targetPoint" />
          </mxGeometry>
        </mxCell>
        <mxCell id="QtL66gHbMc1nn8fpmdVY-57" value="5:ajouter avec succès" style="text;html=1;align=center;verticalAlign=middle;resizable=0;points=[];autosize=1;strokeColor=none;fillColor=none;" parent="1" vertex="1">
          <mxGeometry x="355" y="1120" width="140" height="30" as="geometry" />
        </mxCell>
        <mxCell id="QtL66gHbMc1nn8fpmdVY-58" value="" style="endArrow=none;dashed=1;html=1;rounded=0;entryX=0.999;entryY=0.677;entryDx=0;entryDy=0;entryPerimeter=0;" parent="1" edge="1">
          <mxGeometry width="50" height="50" relative="1" as="geometry">
            <mxPoint x="237.5" y="1180" as="sourcePoint" />
            <mxPoint x="652.4999999999999" y="1180" as="targetPoint" />
          </mxGeometry>
        </mxCell>
        <mxCell id="QtL66gHbMc1nn8fpmdVY-59" value="" style="endArrow=block;dashed=1;endFill=0;endSize=12;html=1;rounded=0;exitX=0.5;exitY=0.458;exitDx=0;exitDy=0;exitPerimeter=0;" parent="1" edge="1">
          <mxGeometry width="160" relative="1" as="geometry">
            <mxPoint x="560" y="1220" as="sourcePoint" />
            <mxPoint x="290" y="1220" as="targetPoint" />
          </mxGeometry>
        </mxCell>
        <mxCell id="QtL66gHbMc1nn8fpmdVY-60" value="error" style="text;html=1;align=center;verticalAlign=middle;resizable=0;points=[];autosize=1;strokeColor=none;fillColor=none;" parent="1" vertex="1">
          <mxGeometry x="400" y="1190" width="50" height="30" as="geometry" />
        </mxCell>
        <mxCell id="QtL66gHbMc1nn8fpmdVY-81" value="&lt;font style=&quot;font-size: 10px;&quot;&gt;ajout publication&lt;/font&gt;" style="shape=umlFrame;whiteSpace=wrap;html=1;pointerEvents=0;" parent="1" vertex="1">
          <mxGeometry x="-350" y="100" width="470" height="520" as="geometry" />
        </mxCell>
        <mxCell id="QtL66gHbMc1nn8fpmdVY-82" value="" style="shape=umlLifeline;perimeter=lifelinePerimeter;whiteSpace=wrap;html=1;container=1;dropTarget=0;collapsible=0;recursiveResize=0;outlineConnect=0;portConstraint=eastwest;newEdgeStyle={&quot;curved&quot;:0,&quot;rounded&quot;:0};participant=umlActor;size=40;" parent="1" vertex="1">
          <mxGeometry x="-280" y="150" width="20" height="450" as="geometry" />
        </mxCell>
        <mxCell id="QtL66gHbMc1nn8fpmdVY-83" value="user" style="text;html=1;align=center;verticalAlign=middle;resizable=0;points=[];autosize=1;strokeColor=none;fillColor=none;" parent="1" vertex="1">
          <mxGeometry x="-295" y="178" width="50" height="30" as="geometry" />
        </mxCell>
        <mxCell id="QtL66gHbMc1nn8fpmdVY-84" value="system" style="shape=umlLifeline;perimeter=lifelinePerimeter;whiteSpace=wrap;html=1;container=1;dropTarget=0;collapsible=0;recursiveResize=0;outlineConnect=0;portConstraint=eastwest;newEdgeStyle={&quot;curved&quot;:0,&quot;rounded&quot;:0};" parent="1" vertex="1">
          <mxGeometry x="-50" y="160" width="100" height="440" as="geometry" />
        </mxCell>
        <mxCell id="QtL66gHbMc1nn8fpmdVY-85" value="" style="html=1;points=[[0,0,0,0,5],[0,1,0,0,-5],[1,0,0,0,5],[1,1,0,0,-5]];perimeter=orthogonalPerimeter;outlineConnect=0;targetShapes=umlLifeline;portConstraint=eastwest;newEdgeStyle={&quot;curved&quot;:0,&quot;rounded&quot;:0};" parent="QtL66gHbMc1nn8fpmdVY-84" vertex="1">
          <mxGeometry x="45" y="200" width="10" height="200" as="geometry" />
        </mxCell>
        <mxCell id="QtL66gHbMc1nn8fpmdVY-86" value="verification" style="html=1;align=left;spacingLeft=2;endArrow=block;rounded=0;edgeStyle=orthogonalEdgeStyle;curved=0;rounded=0;" parent="QtL66gHbMc1nn8fpmdVY-84" target="QtL66gHbMc1nn8fpmdVY-85" edge="1">
          <mxGeometry relative="1" as="geometry">
            <mxPoint x="50" y="180" as="sourcePoint" />
            <Array as="points">
              <mxPoint x="85" y="210" />
            </Array>
          </mxGeometry>
        </mxCell>
        <mxCell id="QtL66gHbMc1nn8fpmdVY-87" value="" style="whiteSpace=wrap;html=1;rotation=-90;" parent="1" vertex="1">
          <mxGeometry x="-25" y="260" width="50" height="15" as="geometry" />
        </mxCell>
        <mxCell id="QtL66gHbMc1nn8fpmdVY-88" value="" style="endArrow=classic;html=1;rounded=0;" parent="1" target="QtL66gHbMc1nn8fpmdVY-84" edge="1">
          <mxGeometry width="50" height="50" relative="1" as="geometry">
            <mxPoint x="-270.5" y="240" as="sourcePoint" />
            <mxPoint x="-10" y="240" as="targetPoint" />
          </mxGeometry>
        </mxCell>
        <mxCell id="QtL66gHbMc1nn8fpmdVY-89" value="1: Cliquer sur le bouton &quot;create new post&quot;" style="text;html=1;align=center;verticalAlign=middle;resizable=0;points=[];autosize=1;strokeColor=none;fillColor=none;" parent="1" vertex="1">
          <mxGeometry x="-255" y="218" width="240" height="30" as="geometry" />
        </mxCell>
        <mxCell id="QtL66gHbMc1nn8fpmdVY-90" value="" style="endArrow=block;dashed=1;endFill=0;endSize=12;html=1;rounded=0;" parent="1" edge="1">
          <mxGeometry width="160" relative="1" as="geometry">
            <mxPoint x="-10" y="290" as="sourcePoint" />
            <mxPoint x="-267.87" y="290" as="targetPoint" />
          </mxGeometry>
        </mxCell>
        <mxCell id="QtL66gHbMc1nn8fpmdVY-91" value="2: formulaire de creation" style="text;html=1;align=center;verticalAlign=middle;resizable=0;points=[];autosize=1;strokeColor=none;fillColor=none;" parent="1" vertex="1">
          <mxGeometry x="-210" y="260" width="150" height="30" as="geometry" />
        </mxCell>
        <mxCell id="QtL66gHbMc1nn8fpmdVY-92" value="" style="endArrow=classic;html=1;rounded=0;" parent="1" edge="1">
          <mxGeometry width="50" height="50" relative="1" as="geometry">
            <mxPoint x="-270.25" y="340" as="sourcePoint" />
            <mxPoint x="0.25" y="340" as="targetPoint" />
          </mxGeometry>
        </mxCell>
        <mxCell id="QtL66gHbMc1nn8fpmdVY-93" value="3:remplissage formulaire" style="text;html=1;align=center;verticalAlign=middle;resizable=0;points=[];autosize=1;strokeColor=none;fillColor=none;" parent="1" vertex="1">
          <mxGeometry x="-210" y="320" width="150" height="30" as="geometry" />
        </mxCell>
        <mxCell id="QtL66gHbMc1nn8fpmdVY-94" value="" style="endArrow=block;dashed=1;endFill=0;endSize=12;html=1;rounded=0;exitX=0.5;exitY=0.458;exitDx=0;exitDy=0;exitPerimeter=0;" parent="1" edge="1">
          <mxGeometry width="160" relative="1" as="geometry">
            <mxPoint y="439.91999999999996" as="sourcePoint" />
            <mxPoint x="-270" y="440" as="targetPoint" />
          </mxGeometry>
        </mxCell>
        <mxCell id="QtL66gHbMc1nn8fpmdVY-95" value="5:ajouter avec succès" style="text;html=1;align=center;verticalAlign=middle;resizable=0;points=[];autosize=1;strokeColor=none;fillColor=none;" parent="1" vertex="1">
          <mxGeometry x="-205" y="410" width="140" height="30" as="geometry" />
        </mxCell>
        <mxCell id="QtL66gHbMc1nn8fpmdVY-96" value="" style="endArrow=block;dashed=1;endFill=0;endSize=12;html=1;rounded=0;exitX=0.5;exitY=0.458;exitDx=0;exitDy=0;exitPerimeter=0;" parent="1" edge="1">
          <mxGeometry width="160" relative="1" as="geometry">
            <mxPoint y="510" as="sourcePoint" />
            <mxPoint x="-270" y="510" as="targetPoint" />
          </mxGeometry>
        </mxCell>
        <mxCell id="QtL66gHbMc1nn8fpmdVY-97" value="error" style="text;html=1;align=center;verticalAlign=middle;resizable=0;points=[];autosize=1;strokeColor=none;fillColor=none;" parent="1" vertex="1">
          <mxGeometry x="-160" y="480" width="50" height="30" as="geometry" />
        </mxCell>
        <mxCell id="QtL66gHbMc1nn8fpmdVY-98" value="&lt;span style=&quot;font-size: 10px;&quot;&gt;modifier pub&lt;/span&gt;" style="shape=umlFrame;whiteSpace=wrap;html=1;pointerEvents=0;" parent="1" vertex="1">
          <mxGeometry x="-340" y="810" width="440" height="520" as="geometry" />
        </mxCell>
        <mxCell id="QtL66gHbMc1nn8fpmdVY-99" value="" style="shape=umlLifeline;perimeter=lifelinePerimeter;whiteSpace=wrap;html=1;container=1;dropTarget=0;collapsible=0;recursiveResize=0;outlineConnect=0;portConstraint=eastwest;newEdgeStyle={&quot;curved&quot;:0,&quot;rounded&quot;:0};participant=umlActor;size=40;" parent="1" vertex="1">
          <mxGeometry x="-285" y="870" width="20" height="450" as="geometry" />
        </mxCell>
        <mxCell id="QtL66gHbMc1nn8fpmdVY-100" value="user" style="text;html=1;align=center;verticalAlign=middle;resizable=0;points=[];autosize=1;strokeColor=none;fillColor=none;" parent="1" vertex="1">
          <mxGeometry x="-300" y="898" width="50" height="30" as="geometry" />
        </mxCell>
        <mxCell id="QtL66gHbMc1nn8fpmdVY-101" value="system" style="shape=umlLifeline;perimeter=lifelinePerimeter;whiteSpace=wrap;html=1;container=1;dropTarget=0;collapsible=0;recursiveResize=0;outlineConnect=0;portConstraint=eastwest;newEdgeStyle={&quot;curved&quot;:0,&quot;rounded&quot;:0};" parent="1" vertex="1">
          <mxGeometry x="-55" y="880" width="100" height="440" as="geometry" />
        </mxCell>
        <mxCell id="QtL66gHbMc1nn8fpmdVY-102" value="" style="html=1;points=[[0,0,0,0,5],[0,1,0,0,-5],[1,0,0,0,5],[1,1,0,0,-5]];perimeter=orthogonalPerimeter;outlineConnect=0;targetShapes=umlLifeline;portConstraint=eastwest;newEdgeStyle={&quot;curved&quot;:0,&quot;rounded&quot;:0};" parent="QtL66gHbMc1nn8fpmdVY-101" vertex="1">
          <mxGeometry x="45" y="200" width="10" height="200" as="geometry" />
        </mxCell>
        <mxCell id="QtL66gHbMc1nn8fpmdVY-103" value="verification" style="html=1;align=left;spacingLeft=2;endArrow=block;rounded=0;edgeStyle=orthogonalEdgeStyle;curved=0;rounded=0;" parent="QtL66gHbMc1nn8fpmdVY-101" target="QtL66gHbMc1nn8fpmdVY-102" edge="1">
          <mxGeometry relative="1" as="geometry">
            <mxPoint x="50" y="180" as="sourcePoint" />
            <Array as="points">
              <mxPoint x="85" y="210" />
            </Array>
          </mxGeometry>
        </mxCell>
        <mxCell id="QtL66gHbMc1nn8fpmdVY-104" value="" style="whiteSpace=wrap;html=1;rotation=-90;" parent="1" vertex="1">
          <mxGeometry x="-30" y="980" width="50" height="15" as="geometry" />
        </mxCell>
        <mxCell id="QtL66gHbMc1nn8fpmdVY-105" value="" style="endArrow=classic;html=1;rounded=0;" parent="1" target="QtL66gHbMc1nn8fpmdVY-101" edge="1">
          <mxGeometry width="50" height="50" relative="1" as="geometry">
            <mxPoint x="-275.5" y="960" as="sourcePoint" />
            <mxPoint x="-15" y="960" as="targetPoint" />
          </mxGeometry>
        </mxCell>
        <mxCell id="QtL66gHbMc1nn8fpmdVY-106" value="1: Cliquer sur &quot;edit&quot; dans la liste des option" style="text;html=1;align=center;verticalAlign=middle;resizable=0;points=[];autosize=1;strokeColor=none;fillColor=none;" parent="1" vertex="1">
          <mxGeometry x="-265" y="938" width="250" height="30" as="geometry" />
        </mxCell>
        <mxCell id="QtL66gHbMc1nn8fpmdVY-107" value="" style="endArrow=block;dashed=1;endFill=0;endSize=12;html=1;rounded=0;" parent="1" edge="1">
          <mxGeometry width="160" relative="1" as="geometry">
            <mxPoint x="-15" y="1010" as="sourcePoint" />
            <mxPoint x="-272.87" y="1010" as="targetPoint" />
          </mxGeometry>
        </mxCell>
        <mxCell id="QtL66gHbMc1nn8fpmdVY-108" value="2: formulaire d&#39;edition" style="text;html=1;align=center;verticalAlign=middle;resizable=0;points=[];autosize=1;strokeColor=none;fillColor=none;" parent="1" vertex="1">
          <mxGeometry x="-210" y="980" width="140" height="30" as="geometry" />
        </mxCell>
        <mxCell id="QtL66gHbMc1nn8fpmdVY-109" value="" style="endArrow=classic;html=1;rounded=0;" parent="1" edge="1">
          <mxGeometry width="50" height="50" relative="1" as="geometry">
            <mxPoint x="-275.25" y="1060" as="sourcePoint" />
            <mxPoint x="-4.75" y="1060" as="targetPoint" />
          </mxGeometry>
        </mxCell>
        <mxCell id="QtL66gHbMc1nn8fpmdVY-110" value="3:remplissage formulaire" style="text;html=1;align=center;verticalAlign=middle;resizable=0;points=[];autosize=1;strokeColor=none;fillColor=none;" parent="1" vertex="1">
          <mxGeometry x="-215" y="1040" width="150" height="30" as="geometry" />
        </mxCell>
        <mxCell id="QtL66gHbMc1nn8fpmdVY-111" value="" style="endArrow=block;dashed=1;endFill=0;endSize=12;html=1;rounded=0;exitX=0.5;exitY=0.458;exitDx=0;exitDy=0;exitPerimeter=0;" parent="1" edge="1">
          <mxGeometry width="160" relative="1" as="geometry">
            <mxPoint x="-5" y="1159.92" as="sourcePoint" />
            <mxPoint x="-275" y="1160" as="targetPoint" />
          </mxGeometry>
        </mxCell>
        <mxCell id="QtL66gHbMc1nn8fpmdVY-112" value="5:Modifier avec succés" style="text;html=1;align=center;verticalAlign=middle;resizable=0;points=[];autosize=1;strokeColor=none;fillColor=none;" parent="1" vertex="1">
          <mxGeometry x="-215" y="1130" width="150" height="30" as="geometry" />
        </mxCell>
        <mxCell id="QtL66gHbMc1nn8fpmdVY-113" value="" style="endArrow=block;dashed=1;endFill=0;endSize=12;html=1;rounded=0;exitX=0.5;exitY=0.458;exitDx=0;exitDy=0;exitPerimeter=0;" parent="1" edge="1">
          <mxGeometry width="160" relative="1" as="geometry">
            <mxPoint x="-5" y="1230" as="sourcePoint" />
            <mxPoint x="-275" y="1230" as="targetPoint" />
          </mxGeometry>
        </mxCell>
        <mxCell id="QtL66gHbMc1nn8fpmdVY-114" value="error" style="text;html=1;align=center;verticalAlign=middle;resizable=0;points=[];autosize=1;strokeColor=none;fillColor=none;" parent="1" vertex="1">
          <mxGeometry x="-165" y="1200" width="50" height="30" as="geometry" />
        </mxCell>
        <mxCell id="QtL66gHbMc1nn8fpmdVY-133" value="&lt;font style=&quot;font-size: 10px;&quot;&gt;suprimer pub&lt;/font&gt;" style="shape=umlFrame;whiteSpace=wrap;html=1;pointerEvents=0;" parent="1" vertex="1">
          <mxGeometry x="-325" y="1410" width="440" height="330" as="geometry" />
        </mxCell>
        <mxCell id="QtL66gHbMc1nn8fpmdVY-134" value="" style="shape=umlLifeline;perimeter=lifelinePerimeter;whiteSpace=wrap;html=1;container=1;dropTarget=0;collapsible=0;recursiveResize=0;outlineConnect=0;portConstraint=eastwest;newEdgeStyle={&quot;curved&quot;:0,&quot;rounded&quot;:0};participant=umlActor;size=40;" parent="1" vertex="1">
          <mxGeometry x="-255" y="1428" width="20" height="302" as="geometry" />
        </mxCell>
        <mxCell id="QtL66gHbMc1nn8fpmdVY-135" value="user" style="text;html=1;align=center;verticalAlign=middle;resizable=0;points=[];autosize=1;strokeColor=none;fillColor=none;" parent="1" vertex="1">
          <mxGeometry x="-265" y="1456" width="50" height="30" as="geometry" />
        </mxCell>
        <mxCell id="QtL66gHbMc1nn8fpmdVY-136" value="system" style="shape=umlLifeline;perimeter=lifelinePerimeter;whiteSpace=wrap;html=1;container=1;dropTarget=0;collapsible=0;recursiveResize=0;outlineConnect=0;portConstraint=eastwest;newEdgeStyle={&quot;curved&quot;:0,&quot;rounded&quot;:0};" parent="1" vertex="1">
          <mxGeometry x="-20" y="1438" width="100" height="292" as="geometry" />
        </mxCell>
        <mxCell id="QtL66gHbMc1nn8fpmdVY-137" value="" style="html=1;points=[[0,0,0,0,5],[0,1,0,0,-5],[1,0,0,0,5],[1,1,0,0,-5]];perimeter=orthogonalPerimeter;outlineConnect=0;targetShapes=umlLifeline;portConstraint=eastwest;newEdgeStyle={&quot;curved&quot;:0,&quot;rounded&quot;:0};" parent="QtL66gHbMc1nn8fpmdVY-136" vertex="1">
          <mxGeometry x="45" y="177" width="10" height="103" as="geometry" />
        </mxCell>
        <mxCell id="QtL66gHbMc1nn8fpmdVY-139" value="" style="whiteSpace=wrap;html=1;rotation=-90;" parent="1" vertex="1">
          <mxGeometry x="5" y="1538" width="50" height="15" as="geometry" />
        </mxCell>
        <mxCell id="QtL66gHbMc1nn8fpmdVY-140" value="" style="endArrow=classic;html=1;rounded=0;" parent="1" target="QtL66gHbMc1nn8fpmdVY-136" edge="1">
          <mxGeometry width="50" height="50" relative="1" as="geometry">
            <mxPoint x="-240.5" y="1518" as="sourcePoint" />
            <mxPoint x="20" y="1518" as="targetPoint" />
          </mxGeometry>
        </mxCell>
        <mxCell id="QtL66gHbMc1nn8fpmdVY-141" value="1: Cliquer sur &quot;suprimer&quot; dans la liste des option" style="text;html=1;align=center;verticalAlign=middle;resizable=0;points=[];autosize=1;strokeColor=none;fillColor=none;" parent="1" vertex="1">
          <mxGeometry x="-245" y="1496" width="280" height="30" as="geometry" />
        </mxCell>
        <mxCell id="QtL66gHbMc1nn8fpmdVY-142" value="" style="endArrow=block;dashed=1;endFill=0;endSize=12;html=1;rounded=0;" parent="1" edge="1">
          <mxGeometry width="160" relative="1" as="geometry">
            <mxPoint x="20" y="1568" as="sourcePoint" />
            <mxPoint x="-237.87" y="1568" as="targetPoint" />
          </mxGeometry>
        </mxCell>
        <mxCell id="QtL66gHbMc1nn8fpmdVY-143" value="2:pop up de confirmation" style="text;html=1;align=center;verticalAlign=middle;resizable=0;points=[];autosize=1;strokeColor=none;fillColor=none;" parent="1" vertex="1">
          <mxGeometry x="-185" y="1538" width="160" height="30" as="geometry" />
        </mxCell>
        <mxCell id="QtL66gHbMc1nn8fpmdVY-144" value="" style="endArrow=classic;html=1;rounded=0;" parent="1" edge="1">
          <mxGeometry width="50" height="50" relative="1" as="geometry">
            <mxPoint x="-240.25" y="1618" as="sourcePoint" />
            <mxPoint x="30.25" y="1618" as="targetPoint" />
          </mxGeometry>
        </mxCell>
        <mxCell id="QtL66gHbMc1nn8fpmdVY-145" value="3:cliquer sur &quot;confirmer&quot;" style="text;html=1;align=center;verticalAlign=middle;resizable=0;points=[];autosize=1;strokeColor=none;fillColor=none;" parent="1" vertex="1">
          <mxGeometry x="-180" y="1598" width="150" height="30" as="geometry" />
        </mxCell>
        <mxCell id="QtL66gHbMc1nn8fpmdVY-146" value="" style="endArrow=block;dashed=1;endFill=0;endSize=12;html=1;rounded=0;exitX=0.5;exitY=0.458;exitDx=0;exitDy=0;exitPerimeter=0;" parent="1" edge="1">
          <mxGeometry width="160" relative="1" as="geometry">
            <mxPoint x="30" y="1717.92" as="sourcePoint" />
            <mxPoint x="-240" y="1718" as="targetPoint" />
          </mxGeometry>
        </mxCell>
        <mxCell id="QtL66gHbMc1nn8fpmdVY-147" value="4:la publication est supprimer" style="text;html=1;align=center;verticalAlign=middle;resizable=0;points=[];autosize=1;strokeColor=none;fillColor=none;" parent="1" vertex="1">
          <mxGeometry x="-195" y="1688" width="180" height="30" as="geometry" />
        </mxCell>
        <mxCell id="QtL66gHbMc1nn8fpmdVY-150" value="seq alt" style="shape=umlFrame;whiteSpace=wrap;html=1;pointerEvents=0;" parent="1" vertex="1">
          <mxGeometry x="-325" y="1110" width="420" height="160" as="geometry" />
        </mxCell>
        <mxCell id="QtL66gHbMc1nn8fpmdVY-152" value="seq alt" style="shape=umlFrame;whiteSpace=wrap;html=1;pointerEvents=0;" parent="1" vertex="1">
          <mxGeometry x="-325" y="410" width="420" height="160" as="geometry" />
        </mxCell>
        <mxCell id="QtL66gHbMc1nn8fpmdVY-149" value="error" style="text;html=1;align=center;verticalAlign=middle;resizable=0;points=[];autosize=1;strokeColor=none;fillColor=none;" parent="1" vertex="1">
          <mxGeometry x="400" y="1780" width="50" height="30" as="geometry" />
        </mxCell>
        <mxCell id="QtL66gHbMc1nn8fpmdVY-167" value="&lt;font style=&quot;font-size: 10px;&quot;&gt;report&lt;/font&gt;" style="shape=umlFrame;whiteSpace=wrap;html=1;pointerEvents=0;" parent="1" vertex="1">
          <mxGeometry x="190" y="1400" width="490" height="520" as="geometry" />
        </mxCell>
        <mxCell id="QtL66gHbMc1nn8fpmdVY-168" value="" style="shape=umlLifeline;perimeter=lifelinePerimeter;whiteSpace=wrap;html=1;container=1;dropTarget=0;collapsible=0;recursiveResize=0;outlineConnect=0;portConstraint=eastwest;newEdgeStyle={&quot;curved&quot;:0,&quot;rounded&quot;:0};participant=umlActor;size=40;" parent="1" vertex="1">
          <mxGeometry x="280" y="1450" width="20" height="450" as="geometry" />
        </mxCell>
        <mxCell id="QtL66gHbMc1nn8fpmdVY-169" value="user" style="text;html=1;align=center;verticalAlign=middle;resizable=0;points=[];autosize=1;strokeColor=none;fillColor=none;" parent="1" vertex="1">
          <mxGeometry x="265" y="1488" width="50" height="30" as="geometry" />
        </mxCell>
        <mxCell id="QtL66gHbMc1nn8fpmdVY-170" value="system" style="shape=umlLifeline;perimeter=lifelinePerimeter;whiteSpace=wrap;html=1;container=1;dropTarget=0;collapsible=0;recursiveResize=0;outlineConnect=0;portConstraint=eastwest;newEdgeStyle={&quot;curved&quot;:0,&quot;rounded&quot;:0};" parent="1" vertex="1">
          <mxGeometry x="510" y="1460" width="100" height="440" as="geometry" />
        </mxCell>
        <mxCell id="QtL66gHbMc1nn8fpmdVY-171" value="" style="html=1;points=[[0,0,0,0,5],[0,1,0,0,-5],[1,0,0,0,5],[1,1,0,0,-5]];perimeter=orthogonalPerimeter;outlineConnect=0;targetShapes=umlLifeline;portConstraint=eastwest;newEdgeStyle={&quot;curved&quot;:0,&quot;rounded&quot;:0};" parent="QtL66gHbMc1nn8fpmdVY-170" vertex="1">
          <mxGeometry x="45" y="200" width="10" height="200" as="geometry" />
        </mxCell>
        <mxCell id="QtL66gHbMc1nn8fpmdVY-172" value="verification" style="html=1;align=left;spacingLeft=2;endArrow=block;rounded=0;edgeStyle=orthogonalEdgeStyle;curved=0;rounded=0;" parent="QtL66gHbMc1nn8fpmdVY-170" target="QtL66gHbMc1nn8fpmdVY-171" edge="1">
          <mxGeometry relative="1" as="geometry">
            <mxPoint x="50" y="180" as="sourcePoint" />
            <Array as="points">
              <mxPoint x="85" y="210" />
            </Array>
          </mxGeometry>
        </mxCell>
        <mxCell id="QtL66gHbMc1nn8fpmdVY-173" value="" style="whiteSpace=wrap;html=1;rotation=-90;" parent="1" vertex="1">
          <mxGeometry x="535" y="1560" width="50" height="15" as="geometry" />
        </mxCell>
        <mxCell id="QtL66gHbMc1nn8fpmdVY-174" value="" style="endArrow=classic;html=1;rounded=0;" parent="1" target="QtL66gHbMc1nn8fpmdVY-170" edge="1">
          <mxGeometry width="50" height="50" relative="1" as="geometry">
            <mxPoint x="289.5" y="1540" as="sourcePoint" />
            <mxPoint x="550" y="1540" as="targetPoint" />
          </mxGeometry>
        </mxCell>
        <mxCell id="QtL66gHbMc1nn8fpmdVY-175" value="1:cliquer sur le bouton &quot;report&quot;" style="text;html=1;align=center;verticalAlign=middle;resizable=0;points=[];autosize=1;strokeColor=none;fillColor=none;" parent="1" vertex="1">
          <mxGeometry x="335" y="1518" width="180" height="30" as="geometry" />
        </mxCell>
        <mxCell id="QtL66gHbMc1nn8fpmdVY-176" value="" style="endArrow=block;dashed=1;endFill=0;endSize=12;html=1;rounded=0;" parent="1" edge="1">
          <mxGeometry width="160" relative="1" as="geometry">
            <mxPoint x="550" y="1590" as="sourcePoint" />
            <mxPoint x="292.13" y="1590" as="targetPoint" />
          </mxGeometry>
        </mxCell>
        <mxCell id="QtL66gHbMc1nn8fpmdVY-177" value="2:formulaire de signal" style="text;html=1;align=center;verticalAlign=middle;resizable=0;points=[];autosize=1;strokeColor=none;fillColor=none;" parent="1" vertex="1">
          <mxGeometry x="355" y="1560" width="140" height="30" as="geometry" />
        </mxCell>
        <mxCell id="QtL66gHbMc1nn8fpmdVY-178" value="" style="endArrow=classic;html=1;rounded=0;" parent="1" edge="1">
          <mxGeometry width="50" height="50" relative="1" as="geometry">
            <mxPoint x="289.75" y="1640" as="sourcePoint" />
            <mxPoint x="560.25" y="1640" as="targetPoint" />
          </mxGeometry>
        </mxCell>
        <mxCell id="QtL66gHbMc1nn8fpmdVY-179" value="3:remplissage formulaire" style="text;html=1;align=center;verticalAlign=middle;resizable=0;points=[];autosize=1;strokeColor=none;fillColor=none;" parent="1" vertex="1">
          <mxGeometry x="350" y="1620" width="150" height="30" as="geometry" />
        </mxCell>
        <mxCell id="QtL66gHbMc1nn8fpmdVY-180" value="seq alt" style="shape=umlFrame;whiteSpace=wrap;html=1;pointerEvents=0;" parent="1" vertex="1">
          <mxGeometry x="235" y="1690" width="420" height="160" as="geometry" />
        </mxCell>
        <mxCell id="QtL66gHbMc1nn8fpmdVY-181" value="" style="endArrow=block;dashed=1;endFill=0;endSize=12;html=1;rounded=0;exitX=0.5;exitY=0.458;exitDx=0;exitDy=0;exitPerimeter=0;" parent="1" edge="1">
          <mxGeometry width="160" relative="1" as="geometry">
            <mxPoint x="560" y="1739.92" as="sourcePoint" />
            <mxPoint x="290" y="1740" as="targetPoint" />
          </mxGeometry>
        </mxCell>
        <mxCell id="QtL66gHbMc1nn8fpmdVY-182" value="5:rapport envoyer avec succés" style="text;html=1;align=center;verticalAlign=middle;resizable=0;points=[];autosize=1;strokeColor=none;fillColor=none;" parent="1" vertex="1">
          <mxGeometry x="330" y="1710" width="190" height="30" as="geometry" />
        </mxCell>
        <mxCell id="QtL66gHbMc1nn8fpmdVY-183" value="" style="endArrow=none;dashed=1;html=1;rounded=0;entryX=0.999;entryY=0.677;entryDx=0;entryDy=0;entryPerimeter=0;" parent="1" edge="1">
          <mxGeometry width="50" height="50" relative="1" as="geometry">
            <mxPoint x="237.5" y="1770" as="sourcePoint" />
            <mxPoint x="652.4999999999999" y="1770" as="targetPoint" />
          </mxGeometry>
        </mxCell>
        <mxCell id="QtL66gHbMc1nn8fpmdVY-184" value="" style="endArrow=block;dashed=1;endFill=0;endSize=12;html=1;rounded=0;exitX=0.5;exitY=0.458;exitDx=0;exitDy=0;exitPerimeter=0;" parent="1" edge="1">
          <mxGeometry width="160" relative="1" as="geometry">
            <mxPoint x="560" y="1810" as="sourcePoint" />
            <mxPoint x="290" y="1810" as="targetPoint" />
          </mxGeometry>
        </mxCell>
        <mxCell id="QtL66gHbMc1nn8fpmdVY-186" value="&lt;span style=&quot;font-size: 10px;&quot;&gt;confirmer signal&lt;/span&gt;" style="shape=umlFrame;whiteSpace=wrap;html=1;pointerEvents=0;" parent="1" vertex="1">
          <mxGeometry x="-350" y="1810" width="430" height="430" as="geometry" />
        </mxCell>
        <mxCell id="QtL66gHbMc1nn8fpmdVY-187" value="" style="shape=umlLifeline;perimeter=lifelinePerimeter;whiteSpace=wrap;html=1;container=1;dropTarget=0;collapsible=0;recursiveResize=0;outlineConnect=0;portConstraint=eastwest;newEdgeStyle={&quot;curved&quot;:0,&quot;rounded&quot;:0};participant=umlActor;size=40;" parent="1" vertex="1">
          <mxGeometry x="-285" y="1830" width="20" height="380" as="geometry" />
        </mxCell>
        <mxCell id="QtL66gHbMc1nn8fpmdVY-188" value="admin" style="text;html=1;align=center;verticalAlign=middle;resizable=0;points=[];autosize=1;strokeColor=none;fillColor=none;" parent="1" vertex="1">
          <mxGeometry x="-305" y="1868" width="60" height="30" as="geometry" />
        </mxCell>
        <mxCell id="QtL66gHbMc1nn8fpmdVY-189" value="system" style="shape=umlLifeline;perimeter=lifelinePerimeter;whiteSpace=wrap;html=1;container=1;dropTarget=0;collapsible=0;recursiveResize=0;outlineConnect=0;portConstraint=eastwest;newEdgeStyle={&quot;curved&quot;:0,&quot;rounded&quot;:0};" parent="1" vertex="1">
          <mxGeometry x="-55" y="1840" width="100" height="370" as="geometry" />
        </mxCell>
        <mxCell id="QtL66gHbMc1nn8fpmdVY-190" value="" style="html=1;points=[[0,0,0,0,5],[0,1,0,0,-5],[1,0,0,0,5],[1,1,0,0,-5]];perimeter=orthogonalPerimeter;outlineConnect=0;targetShapes=umlLifeline;portConstraint=eastwest;newEdgeStyle={&quot;curved&quot;:0,&quot;rounded&quot;:0};" parent="QtL66gHbMc1nn8fpmdVY-189" vertex="1">
          <mxGeometry x="50" y="160" width="10" height="130" as="geometry" />
        </mxCell>
        <mxCell id="QtL66gHbMc1nn8fpmdVY-192" value="" style="whiteSpace=wrap;html=1;rotation=-90;" parent="1" vertex="1">
          <mxGeometry x="-30" y="1940" width="50" height="15" as="geometry" />
        </mxCell>
        <mxCell id="QtL66gHbMc1nn8fpmdVY-193" value="" style="endArrow=classic;html=1;rounded=0;" parent="1" target="QtL66gHbMc1nn8fpmdVY-189" edge="1">
          <mxGeometry width="50" height="50" relative="1" as="geometry">
            <mxPoint x="-275.5" y="1920" as="sourcePoint" />
            <mxPoint x="-15" y="1920" as="targetPoint" />
          </mxGeometry>
        </mxCell>
        <mxCell id="QtL66gHbMc1nn8fpmdVY-194" value="1:acceder a la page &quot;dashboard&quot;" style="text;html=1;align=center;verticalAlign=middle;resizable=0;points=[];autosize=1;strokeColor=none;fillColor=none;" parent="1" vertex="1">
          <mxGeometry x="-240" y="1898" width="200" height="30" as="geometry" />
        </mxCell>
        <mxCell id="QtL66gHbMc1nn8fpmdVY-195" value="" style="endArrow=block;dashed=1;endFill=0;endSize=12;html=1;rounded=0;" parent="1" edge="1">
          <mxGeometry width="160" relative="1" as="geometry">
            <mxPoint x="-15" y="1970" as="sourcePoint" />
            <mxPoint x="-272.87" y="1970" as="targetPoint" />
          </mxGeometry>
        </mxCell>
        <mxCell id="QtL66gHbMc1nn8fpmdVY-196" value="2:liste des signal&amp;nbsp;" style="text;html=1;align=center;verticalAlign=middle;resizable=0;points=[];autosize=1;strokeColor=none;fillColor=none;" parent="1" vertex="1">
          <mxGeometry x="-200" y="1940" width="120" height="30" as="geometry" />
        </mxCell>
        <mxCell id="QtL66gHbMc1nn8fpmdVY-200" value="" style="endArrow=block;dashed=1;endFill=0;endSize=12;html=1;rounded=0;exitX=0.5;exitY=0.458;exitDx=0;exitDy=0;exitPerimeter=0;" parent="1" edge="1">
          <mxGeometry width="160" relative="1" as="geometry">
            <mxPoint x="-5" y="2054.55" as="sourcePoint" />
            <mxPoint x="-275" y="2054.63" as="targetPoint" />
          </mxGeometry>
        </mxCell>
        <mxCell id="QtL66gHbMc1nn8fpmdVY-201" value="4:pop up de confirmation" style="text;html=1;align=center;verticalAlign=middle;resizable=0;points=[];autosize=1;strokeColor=none;fillColor=none;" parent="1" vertex="1">
          <mxGeometry x="-230" y="2025" width="160" height="30" as="geometry" />
        </mxCell>
        <mxCell id="QtL66gHbMc1nn8fpmdVY-203" value="" style="endArrow=block;dashed=1;endFill=0;endSize=12;html=1;rounded=0;exitX=0.5;exitY=0.458;exitDx=0;exitDy=0;exitPerimeter=0;" parent="1" edge="1">
          <mxGeometry width="160" relative="1" as="geometry">
            <mxPoint x="-10" y="2174.5" as="sourcePoint" />
            <mxPoint x="-280" y="2174.5" as="targetPoint" />
          </mxGeometry>
        </mxCell>
        <mxCell id="QtL66gHbMc1nn8fpmdVY-205" value="" style="endArrow=classic;html=1;rounded=0;" parent="1" edge="1">
          <mxGeometry width="50" height="50" relative="1" as="geometry">
            <mxPoint x="-275.25" y="2010" as="sourcePoint" />
            <mxPoint x="-4.75" y="2010" as="targetPoint" />
          </mxGeometry>
        </mxCell>
        <mxCell id="QtL66gHbMc1nn8fpmdVY-206" value="3:cliquer sur le bouton &quot;confirmer&quot;&amp;nbsp;" style="text;html=1;align=center;verticalAlign=middle;resizable=0;points=[];autosize=1;strokeColor=none;fillColor=none;" parent="1" vertex="1">
          <mxGeometry x="-255" y="1988" width="210" height="30" as="geometry" />
        </mxCell>
        <mxCell id="QtL66gHbMc1nn8fpmdVY-207" value="" style="endArrow=classic;html=1;rounded=0;" parent="1" edge="1">
          <mxGeometry width="50" height="50" relative="1" as="geometry">
            <mxPoint x="-270.25" y="2100" as="sourcePoint" />
            <mxPoint x="0.25" y="2100" as="targetPoint" />
          </mxGeometry>
        </mxCell>
        <mxCell id="QtL66gHbMc1nn8fpmdVY-208" value="cliquer sur le bouton &quot;confirmer&quot;" style="text;html=1;align=center;verticalAlign=middle;resizable=0;points=[];autosize=1;strokeColor=none;fillColor=none;" parent="1" vertex="1">
          <mxGeometry x="-240" y="2070" width="190" height="30" as="geometry" />
        </mxCell>
        <mxCell id="GbVsSXgkMbCwSx1MxH-1-19" value="&lt;span style=&quot;font-size: 10px;&quot;&gt;supprimer utilisateur&lt;/span&gt;" style="shape=umlFrame;whiteSpace=wrap;html=1;pointerEvents=0;" vertex="1" parent="1">
          <mxGeometry x="260" y="2030" width="490" height="520" as="geometry" />
        </mxCell>
        <mxCell id="GbVsSXgkMbCwSx1MxH-1-20" value="" style="shape=umlLifeline;perimeter=lifelinePerimeter;whiteSpace=wrap;html=1;container=1;dropTarget=0;collapsible=0;recursiveResize=0;outlineConnect=0;portConstraint=eastwest;newEdgeStyle={&quot;curved&quot;:0,&quot;rounded&quot;:0};participant=umlActor;size=40;" vertex="1" parent="1">
          <mxGeometry x="325" y="2050" width="20" height="450" as="geometry" />
        </mxCell>
        <mxCell id="GbVsSXgkMbCwSx1MxH-1-21" value="admin" style="text;html=1;align=center;verticalAlign=middle;resizable=0;points=[];autosize=1;strokeColor=none;fillColor=none;" vertex="1" parent="1">
          <mxGeometry x="305" y="2088" width="60" height="30" as="geometry" />
        </mxCell>
        <mxCell id="GbVsSXgkMbCwSx1MxH-1-22" value="system" style="shape=umlLifeline;perimeter=lifelinePerimeter;whiteSpace=wrap;html=1;container=1;dropTarget=0;collapsible=0;recursiveResize=0;outlineConnect=0;portConstraint=eastwest;newEdgeStyle={&quot;curved&quot;:0,&quot;rounded&quot;:0};" vertex="1" parent="1">
          <mxGeometry x="555" y="2060" width="100" height="440" as="geometry" />
        </mxCell>
        <mxCell id="GbVsSXgkMbCwSx1MxH-1-23" value="" style="html=1;points=[[0,0,0,0,5],[0,1,0,0,-5],[1,0,0,0,5],[1,1,0,0,-5]];perimeter=orthogonalPerimeter;outlineConnect=0;targetShapes=umlLifeline;portConstraint=eastwest;newEdgeStyle={&quot;curved&quot;:0,&quot;rounded&quot;:0};" vertex="1" parent="GbVsSXgkMbCwSx1MxH-1-22">
          <mxGeometry x="50" y="160" width="10" height="130" as="geometry" />
        </mxCell>
        <mxCell id="GbVsSXgkMbCwSx1MxH-1-24" value="" style="whiteSpace=wrap;html=1;rotation=-90;" vertex="1" parent="1">
          <mxGeometry x="580" y="2160" width="50" height="15" as="geometry" />
        </mxCell>
        <mxCell id="GbVsSXgkMbCwSx1MxH-1-25" value="" style="endArrow=classic;html=1;rounded=0;" edge="1" parent="1" target="GbVsSXgkMbCwSx1MxH-1-22">
          <mxGeometry width="50" height="50" relative="1" as="geometry">
            <mxPoint x="334.5" y="2140" as="sourcePoint" />
            <mxPoint x="595" y="2140" as="targetPoint" />
          </mxGeometry>
        </mxCell>
        <mxCell id="GbVsSXgkMbCwSx1MxH-1-26" value="1:acceder a la page &quot;dashboard&quot;" style="text;html=1;align=center;verticalAlign=middle;resizable=0;points=[];autosize=1;strokeColor=none;fillColor=none;" vertex="1" parent="1">
          <mxGeometry x="370" y="2118" width="200" height="30" as="geometry" />
        </mxCell>
        <mxCell id="GbVsSXgkMbCwSx1MxH-1-27" value="" style="endArrow=block;dashed=1;endFill=0;endSize=12;html=1;rounded=0;" edge="1" parent="1">
          <mxGeometry width="160" relative="1" as="geometry">
            <mxPoint x="595" y="2190" as="sourcePoint" />
            <mxPoint x="337.13" y="2190" as="targetPoint" />
          </mxGeometry>
        </mxCell>
        <mxCell id="GbVsSXgkMbCwSx1MxH-1-28" value="2:liste des signal&amp;nbsp;" style="text;html=1;align=center;verticalAlign=middle;resizable=0;points=[];autosize=1;strokeColor=none;fillColor=none;" vertex="1" parent="1">
          <mxGeometry x="410" y="2160" width="120" height="30" as="geometry" />
        </mxCell>
        <mxCell id="GbVsSXgkMbCwSx1MxH-1-29" value="" style="endArrow=block;dashed=1;endFill=0;endSize=12;html=1;rounded=0;exitX=0.5;exitY=0.458;exitDx=0;exitDy=0;exitPerimeter=0;" edge="1" parent="1">
          <mxGeometry width="160" relative="1" as="geometry">
            <mxPoint x="605" y="2274.55" as="sourcePoint" />
            <mxPoint x="335" y="2274.63" as="targetPoint" />
          </mxGeometry>
        </mxCell>
        <mxCell id="GbVsSXgkMbCwSx1MxH-1-30" value="4:pop up de confirmation" style="text;html=1;align=center;verticalAlign=middle;resizable=0;points=[];autosize=1;strokeColor=none;fillColor=none;" vertex="1" parent="1">
          <mxGeometry x="380" y="2245" width="160" height="30" as="geometry" />
        </mxCell>
        <mxCell id="GbVsSXgkMbCwSx1MxH-1-31" value="" style="endArrow=block;dashed=1;endFill=0;endSize=12;html=1;rounded=0;exitX=0.5;exitY=0.458;exitDx=0;exitDy=0;exitPerimeter=0;" edge="1" parent="1">
          <mxGeometry width="160" relative="1" as="geometry">
            <mxPoint x="605" y="2410" as="sourcePoint" />
            <mxPoint x="335" y="2410" as="targetPoint" />
          </mxGeometry>
        </mxCell>
        <mxCell id="GbVsSXgkMbCwSx1MxH-1-32" value="error" style="text;html=1;align=center;verticalAlign=middle;resizable=0;points=[];autosize=1;strokeColor=none;fillColor=none;" vertex="1" parent="1">
          <mxGeometry x="445" y="2380" width="50" height="30" as="geometry" />
        </mxCell>
        <mxCell id="GbVsSXgkMbCwSx1MxH-1-33" value="" style="endArrow=classic;html=1;rounded=0;" edge="1" parent="1">
          <mxGeometry width="50" height="50" relative="1" as="geometry">
            <mxPoint x="334.75" y="2230" as="sourcePoint" />
            <mxPoint x="605.25" y="2230" as="targetPoint" />
          </mxGeometry>
        </mxCell>
        <mxCell id="GbVsSXgkMbCwSx1MxH-1-34" value="3:cliquer sur le bouton &quot;confirmer&quot;&amp;nbsp;" style="text;html=1;align=center;verticalAlign=middle;resizable=0;points=[];autosize=1;strokeColor=none;fillColor=none;" vertex="1" parent="1">
          <mxGeometry x="355" y="2208" width="210" height="30" as="geometry" />
        </mxCell>
        <mxCell id="GbVsSXgkMbCwSx1MxH-1-35" value="" style="endArrow=classic;html=1;rounded=0;" edge="1" parent="1">
          <mxGeometry width="50" height="50" relative="1" as="geometry">
            <mxPoint x="339.75" y="2320" as="sourcePoint" />
            <mxPoint x="610.25" y="2320" as="targetPoint" />
          </mxGeometry>
        </mxCell>
        <mxCell id="GbVsSXgkMbCwSx1MxH-1-36" value="cliquer sur le bouton &quot;confirmer&quot;" style="text;html=1;align=center;verticalAlign=middle;resizable=0;points=[];autosize=1;strokeColor=none;fillColor=none;" vertex="1" parent="1">
          <mxGeometry x="370" y="2290" width="190" height="30" as="geometry" />
        </mxCell>
        <mxCell id="GbVsSXgkMbCwSx1MxH-1-38" value="publication supprimer avec succées" style="text;html=1;align=center;verticalAlign=middle;resizable=0;points=[];autosize=1;strokeColor=none;fillColor=none;" vertex="1" parent="1">
          <mxGeometry x="-250" y="2140" width="210" height="30" as="geometry" />
        </mxCell>
      </root>
    </mxGraphModel>
  </diagram>
</mxfile>
